<svg height="681pt" viewBox="-21 -21 681 681.33464" width="681pt" xmlns="http://www.w3.org/2000/svg">
    <path d="m365.304688 302.128906h-290.410157v129.730469h290.410157zm-37.40625 92.328125h-215.601563v-54.921875h215.601563zm0 0" fill="#fff"/>
    <path d="m638.609375 407.449219-78.046875-97.5625h-120.449219v-82.566407h-215.773437v-28.304687c9.847656 2.640625 19.945312 3.972656 30.019531 3.972656 33.742187 0 67.207031-14.65625 90.03125-42.871093l11.765625-14.542969-75.386719-60.984375 24.679688-30.496094-29.078125-23.527344-24.679688 30.5-75.378906-60.9843748-11.765625 14.5390628c-40.109375 49.585937-32.40625 122.558594 17.175781 162.675781 1.710938 1.378906 3.449219 2.679687 5.207032 3.945313v46.078124h-186.8437505v347.316407h64.8867185c4.238282 36.097656 35 64.199219 72.210938 64.199219 37.21875 0 67.972656-28.101563 72.214844-64.199219h244.003906c4.238281 36.097656 34.996094 64.199219 72.210937 64.199219 37.214844 0 67.96875-28.101563 72.214844-64.199219h40.78125zm-198.496094-60.160157h102.46875l53.695313 67.117188h-156.164063zm-256.492187-293.179687 118.171875 95.601563c-13.824219 10.492187-30.558594 15.886718-47.394531 15.886718-17.292969-.003906-34.695313-5.691406-49.148438-17.386718-28.542969-23.089844-36.574219-62.265626-21.628906-94.101563zm-46.4375 547.324219c-19.476563 0-35.324219-15.847656-35.324219-35.328125 0-19.476563 15.847656-35.332031 35.324219-35.332031 19.480468 0 35.328125 15.855468 35.328125 35.332031 0 19.480469-15.847657 35.328125-35.328125 35.328125zm265.523437-64.199219h-198.777343c-11.195313-25.777344-36.898438-43.863281-66.746094-43.863281s-55.546875 18.085937-66.738282 43.863281h-32.957031v-272.507813h365.21875zm122.90625 64.199219c-19.476562 0-35.324219-15.847656-35.324219-35.328125 0-19.476563 15.847657-35.332031 35.324219-35.332031 19.480469 0 35.328125 15.855468 35.328125 35.332031 0 19.480469-15.847656 35.328125-35.328125 35.328125zm75.589844-64.199219h-8.847656c-11.195313-25.777344-36.890625-43.863281-66.742188-43.863281-29.851562 0-55.550781 18.085937-66.742187 43.863281h-18.757813v-85.421875h161.089844zm0 0" fill="#fff" />
</svg>